<?xml version="1.0" encoding="UTF-8"?><svg id="Layer_2_copy" xmlns="http://www.w3.org/2000/svg" viewBox="0 0 1232.49 200"><defs><style>.cls-1{fill:#f4f1bb;}.cls-2{fill:#fff;}.cls-3{fill:#ff5964;}.cls-4{fill:#1d2734;}.cls-5{fill:#4d59bf;}</style></defs><rect class="cls-4" width="200" height="200" rx="37" ry="37"/><path class="cls-2" d="m142.88,73.08c0-23.79-19.29-43.08-43.08-43.08s-43.08,19.29-43.08,43.08v96.92h7.18c7.02,0,13.84-1.38,20.26-4.09,6.2-2.62,11.76-6.37,16.54-11.15,4.78-4.78,8.53-10.34,11.15-16.54,2.72-6.42,4.09-13.24,4.09-20.26,0-1.62-.08-3.24-.22-4.84,15.9-6.33,27.15-21.87,27.15-40.03Z"/><path class="cls-3" d="m142.86,72.99c0,6.41-1.4,12.48-3.91,17.95h32.63c0-18.7-14.3-34.05-32.55-35.74,2.46,5.42,3.84,11.45,3.84,17.79Z"/><path class="cls-4" d="m135.68,72.99c0-19.83-16.07-35.9-35.9-35.9s-35.9,16.07-35.9,35.9v89.74c24.78,0,44.87-20.09,44.87-44.87,0-3.38-.38-6.68-1.09-9.85,16.03-3.59,28.01-17.91,28.01-35.03Zm-35.9,17.95c-9.91,0-17.95-8.04-17.95-17.95s8.04-17.95,17.95-17.95,17.95,8.04,17.95,17.95-8.04,17.95-17.95,17.95Z"/><path class="cls-1" d="m142.86,72.99c0,6.41-1.4,12.48-3.91,17.95h25.45c0-13.79-9.77-25.33-22.74-28.09.79,3.25,1.2,6.65,1.2,10.14Z"/><path class="cls-5" d="m142.86,72.99c0,6.41-1.4,12.48-3.91,17.95h18.27c0-9.38-6.03-17.39-14.43-20.33.04.79.07,1.58.07,2.38Z"/><path class="cls-4" d="m327.06,86.33c0,17.82-14.34,32.16-32.83,32.16h-14.07v29.48h-21.44V54.17h35.51c18.49,0,32.83,14.34,32.83,32.16Zm-21.44,0c0-6.83-4.82-12.06-11.39-12.06h-14.07v24.12h14.07c6.57,0,11.39-5.23,11.39-12.06Z"/><path class="cls-4" d="m375.97,79.63v22.78c-8.31-1.34-20.1,2.01-20.1,15.28v30.28h-20.1v-67h20.1v11.93c2.68-8.98,11.66-13.27,20.1-13.27Z"/><path class="cls-4" d="m417.38,131.89c5.49,0,10.18-2.14,12.86-5.09l16.08,9.25c-6.57,9.11-16.48,13.8-29.21,13.8-22.91,0-37.12-15.41-37.12-35.38s14.47-35.38,35.64-35.38c19.56,0,34.04,15.14,34.04,35.38,0,2.81-.27,5.49-.8,8.04h-47.57c2.55,6.97,8.71,9.38,16.08,9.38Zm12.33-24.39c-2.14-7.77-8.17-10.59-14.2-10.59-7.64,0-12.73,3.75-14.61,10.59h28.81Z"/><path class="cls-4" d="m510.37,127.87c0,15.41-13.4,21.98-27.87,21.98-13.4,0-23.58-5.09-28.81-15.95l17.42-9.92c1.74,5.09,5.49,7.91,11.39,7.91,4.82,0,7.24-1.47,7.24-4.15,0-7.37-32.96-3.48-32.96-26.67,0-14.61,12.33-21.98,26.26-21.98,10.85,0,20.5,4.82,26.13,14.34l-17.15,9.25c-1.88-3.48-4.56-5.9-8.98-5.9-3.48,0-5.63,1.34-5.63,3.75,0,7.64,32.96,2.55,32.96,27.34Z"/><path class="cls-4" d="m518.41,63.01c0-6.57,5.49-12.06,12.06-12.06s12.06,5.49,12.06,12.06-5.49,12.06-12.06,12.06-12.06-5.49-12.06-12.06Zm2.01,17.96h20.1v67h-20.1v-67Z"/><path class="cls-4" d="m624,54.17v93.8h-20.1v-6.3c-4.42,5.09-10.99,8.17-19.97,8.17-17.55,0-32.03-15.41-32.03-35.38s14.47-35.38,32.03-35.38c8.98,0,15.54,3.08,19.97,8.17v-33.1h20.1Zm-20.1,60.3c0-10.05-6.7-16.35-15.95-16.35s-15.95,6.3-15.95,16.35,6.7,16.35,15.95,16.35,15.95-6.3,15.95-16.35Z"/><path class="cls-4" d="m672.78,131.89c5.49,0,10.18-2.14,12.86-5.09l16.08,9.25c-6.57,9.11-16.48,13.8-29.21,13.8-22.91,0-37.12-15.41-37.12-35.38s14.47-35.38,35.64-35.38c19.56,0,34.04,15.14,34.04,35.38,0,2.81-.27,5.49-.8,8.04h-47.57c2.55,6.97,8.71,9.38,16.08,9.38Zm12.33-24.39c-2.14-7.77-8.17-10.59-14.2-10.59-7.64,0-12.73,3.75-14.61,10.59h28.81Z"/><path class="cls-5" d="m785.47,86.33c0,17.82-14.34,32.16-32.83,32.16h-14.07v29.48h-21.44V54.17h35.51c18.49,0,32.83,14.34,32.83,32.16Zm-21.44,0c0-6.83-4.82-12.06-11.39-12.06h-14.07v24.12h14.07c6.57,0,11.39-5.23,11.39-12.06Z"/><path class="cls-5" d="m795.52,50.15h20.1v97.82h-20.1V50.15Z"/><path class="cls-5" d="m899.1,80.97v67h-20.1v-6.3c-4.42,5.09-10.99,8.17-19.97,8.17-17.55,0-32.03-15.41-32.03-35.38s14.47-35.38,32.03-35.38c8.98,0,15.54,3.08,19.97,8.17v-6.3h20.1Zm-20.1,33.5c0-10.05-6.7-16.35-15.95-16.35s-15.95,6.3-15.95,16.35,6.7,16.35,15.95,16.35,15.95-6.3,15.95-16.35Z"/><path class="cls-5" d="m939.3,100.27v23.72c0,5.76,4.96,6.3,13.8,5.76v18.22c-26.26,2.68-33.9-5.23-33.9-23.99v-23.72h-10.72v-19.3h10.72v-12.73l20.1-6.03v18.76h13.8v19.3h-13.8Z"/><path class="cls-5" d="m985.53,80.97h12.46v19.3h-12.46v47.71h-20.1v-47.71h-8.98v-19.3h8.98c0-18.76,10.32-30.02,32.56-28.68v19.3c-7.5-.67-12.46,1.61-12.46,9.38Z"/><path class="cls-5" d="m1000,114.47c0-19.97,15.81-35.38,35.51-35.38s35.51,15.41,35.51,35.38-15.81,35.38-35.51,35.38-35.51-15.41-35.51-35.38Zm50.92,0c0-9.51-6.7-15.81-15.41-15.81s-15.41,6.3-15.41,15.81,6.7,15.81,15.41,15.81,15.41-6.3,15.41-15.81Z"/><path class="cls-5" d="m1122.61,79.63v22.78c-8.31-1.34-20.1,2.01-20.1,15.28v30.28h-20.1v-67h20.1v11.93c2.68-8.98,11.66-13.27,20.1-13.27Z"/><path class="cls-5" d="m1232.49,106.83v41.14h-20.1v-39.4c0-6.7-3.22-10.99-9.65-10.99s-10.45,4.69-10.45,12.6v37.79h-20.1v-39.4c0-6.7-3.22-10.99-9.65-10.99s-10.45,4.69-10.45,12.6v37.79h-20.1v-67h20.1v6.16c3.08-4.56,8.98-8.04,17.96-8.04,7.91,0,13.8,3.22,17.55,8.84,3.75-5.36,9.92-8.84,19.43-8.84,15.41,0,25.46,10.99,25.46,27.74Z"/></svg>